<?xml version="1.0" encoding="utf-8"?>
<!DOCTYPE svg PUBLIC "-//W3C//DTD SVG 1.1//EN" "http://www.w3.org/Graphics/SVG/1.1/DTD/svg11.dtd">
<svg version="1.1" id="Layer_1" xmlns="http://www.w3.org/2000/svg" xmlns:xlink="http://www.w3.org/1999/xlink" x="0px" y="0px"
     width="20mm" height="20mm" viewBox="0 0 489.31 494.244" enable-background="new 0 0 489.31 494.244"
     xml:space="preserve">
<path fill="#D84040" d="M342,171c0,94.441-76.56,171-171,171C76.559,342,0,265.441,0,171S76.559,0,171,0C265.44,0,342,76.559,342,171z M171,36
    C96.441,36,36,96.441,36,171c0,74.559,60.441,135,135,135s135-60.441,135-135C306,96.441,245.559,36,171,36z"/>
<rect fill="#D84040" x="261.217" y="335.983" transform="matrix(-0.7071 -0.7071 0.7071 -0.7071 345.92 851.2505)" width="176.085" height="36"/>
<path fill="#D84040" d="M329.201,360.975c-5.928,5.93-5.928,15.542,0,21.471l107.353,107.353c5.93,5.928,15.542,5.928,21.471,0l26.838-26.838
     c5.93-5.928,5.93-15.543,0-21.471L377.51,334.137c-5.928-5.929-15.543-5.929-21.471,0L329.201,360.975z"/>
</svg>
